<mxfile host="app.diagrams.net" agent="Mozilla/5.0 (Windows NT 10.0; Win64; x64) AppleWebKit/537.36 (KHTML, like Gecko) Chrome/133.0.0.0 Safari/537.36" version="26.0.11">
  <diagram name="Page-1" id="2j5106XvHn0K-xGuoR3b">
    <mxGraphModel dx="2206" dy="1209" grid="1" gridSize="10" guides="1" tooltips="1" connect="1" arrows="1" fold="1" page="1" pageScale="1" pageWidth="850" pageHeight="1100" math="0" shadow="0">
      <root>
        <mxCell id="0" />
        <mxCell id="1" parent="0" />
        <mxCell id="2" value="Start" style="ellipse;whiteSpace=wrap;html=1;" parent="1" vertex="1">
          <mxGeometry x="360" y="20" width="100" height="60" as="geometry" />
        </mxCell>
        <mxCell id="3" value="AccessControlSystem.createCard()" style="rounded=1;whiteSpace=wrap;html=1;" parent="1" vertex="1">
          <mxGeometry x="270" y="120" width="280" height="60" as="geometry" />
        </mxCell>
        <mxCell id="4" parent="1" source="2" target="3" edge="1">
          <mxGeometry relative="1" as="geometry" />
        </mxCell>
        <mxCell id="5" value="Input: cardId, expiration, cardType" style="shape=parallelogram;perimeter=parallelogramPerimeter;whiteSpace=wrap;html=1;fixedSize=1;" parent="1" vertex="1">
          <mxGeometry x="330" y="220" width="160" height="60" as="geometry" />
        </mxCell>
        <mxCell id="6" parent="1" source="3" target="5" edge="1">
          <mxGeometry relative="1" as="geometry" />
        </mxCell>
        <mxCell id="RBgAfe0IcUGbEfYPq5ZH-76" style="edgeStyle=orthogonalEdgeStyle;rounded=0;orthogonalLoop=1;jettySize=auto;html=1;entryX=0.5;entryY=0;entryDx=0;entryDy=0;" edge="1" parent="1" source="7" target="19">
          <mxGeometry relative="1" as="geometry" />
        </mxCell>
        <mxCell id="7" value="cardType" style="rhombus;whiteSpace=wrap;html=1;" parent="1" vertex="1">
          <mxGeometry x="360" y="320" width="100" height="80" as="geometry" />
        </mxCell>
        <mxCell id="8" parent="1" source="5" target="7" edge="1">
          <mxGeometry relative="1" as="geometry" />
        </mxCell>
        <mxCell id="9" value="Standard" style="text;html=1;strokeColor=none;fillColor=none;align=center;verticalAlign=middle;whiteSpace=wrap;rounded=0;" parent="1" vertex="1">
          <mxGeometry x="280" y="330" width="60" height="30" as="geometry" />
        </mxCell>
        <mxCell id="10" value="VIP" style="text;html=1;strokeColor=none;fillColor=none;align=center;verticalAlign=middle;whiteSpace=wrap;rounded=0;" parent="1" vertex="1">
          <mxGeometry x="365" y="410" width="60" height="30" as="geometry" />
        </mxCell>
        <mxCell id="11" value="Guest" style="text;html=1;strokeColor=none;fillColor=none;align=center;verticalAlign=middle;whiteSpace=wrap;rounded=0;" parent="1" vertex="1">
          <mxGeometry x="470" y="330" width="60" height="30" as="geometry" />
        </mxCell>
        <mxCell id="13" value="Create StandardAccessCard" style="rounded=1;whiteSpace=wrap;html=1;" parent="1" vertex="1">
          <mxGeometry x="160" y="450" width="160" height="60" as="geometry" />
        </mxCell>
        <mxCell id="14" parent="1" source="7" target="13" edge="1">
          <mxGeometry x="-0.4" y="-10" relative="1" as="geometry">
            <mxPoint as="offset" />
            <mxPoint x="-10" y="-10" as="targetPoint" />
            <mxPoint x="20" y="-10" as="sourcePoint" />
            <Array as="points">
              <mxPoint x="240" y="360" />
              <mxPoint x="240" y="450" />
            </Array>
          </mxGeometry>
          <mxLabel align="center" relative="1" x="0.08" y="-1" as="label">
            <mxGeometry x="-1" y="-1" width="20" height="20" as="geometry">
              <mxPoint as="offset" />
            </mxGeometry>
          </mxLabel>
        </mxCell>
        <mxCell id="15" value="Create VIPAccessCard" style="rounded=1;whiteSpace=wrap;html=1;" parent="1" vertex="1">
          <mxGeometry x="330" y="450" width="120" height="60" as="geometry" />
        </mxCell>
        <mxCell id="17" value="Create GuestAccessCard" style="rounded=1;whiteSpace=wrap;html=1;" parent="1" vertex="1">
          <mxGeometry x="500" y="450" width="140" height="60" as="geometry" />
        </mxCell>
        <mxCell id="18" parent="1" source="7" target="17" edge="1">
          <mxGeometry relative="1" as="geometry">
            <mxPoint x="490" y="400" as="targetPoint" />
            <mxPoint x="490" y="320" as="sourcePoint" />
            <Array as="points">
              <mxPoint x="570" y="360" />
              <mxPoint x="570" y="450" />
            </Array>
          </mxGeometry>
          <mxLabel align="center" relative="1" x="-0.43" y="-1" as="label">
            <mxGeometry x="-1" y="-1" width="20" height="20" as="geometry">
              <mxPoint as="offset" />
            </mxGeometry>
          </mxLabel>
        </mxCell>
        <mxCell id="19" value="Throw IllegalArgumentException" style="rounded=1;whiteSpace=wrap;html=1;" parent="1" vertex="1">
          <mxGeometry x="330" y="450" width="160" height="60" as="geometry" />
        </mxCell>
        <mxCell id="21" value="Put card in cards map" style="whiteSpace=wrap;html=1;rounded=1;" parent="1" vertex="1">
          <mxGeometry x="350" y="550" width="120" height="60" as="geometry" />
        </mxCell>
        <mxCell id="22" parent="1" source="13" target="21" edge="1">
          <mxGeometry relative="1" as="geometry">
            <mxPoint x="330" y="580" as="targetPoint" />
            <mxPoint x="240" y="510" as="sourcePoint" />
            <Array as="points">
              <mxPoint x="240" y="580" />
            </Array>
          </mxGeometry>
        </mxCell>
        <mxCell id="25" parent="1" source="19" target="21" edge="1">
          <mxGeometry relative="1" as="geometry">
            <mxPoint x="410" y="510" as="sourcePoint" />
            <mxPoint x="410" y="550" as="targetPoint" />
          </mxGeometry>
        </mxCell>
        <mxCell id="26" value="Log Modification (&quot;Created&quot;, cardId)" style="whiteSpace=wrap;html=1;rounded=1;" parent="1" vertex="1">
          <mxGeometry x="350" y="650" width="120" height="60" as="geometry" />
        </mxCell>
        <mxCell id="27" parent="1" source="21" target="26" edge="1">
          <mxGeometry relative="1" as="geometry" />
        </mxCell>
        <mxCell id="28" value="End" style="ellipse;whiteSpace=wrap;html=1;" parent="1" vertex="1">
          <mxGeometry x="360" y="750" width="100" height="60" as="geometry" />
        </mxCell>
        <mxCell id="29" parent="1" source="26" target="28" edge="1">
          <mxGeometry relative="1" as="geometry" />
        </mxCell>
        <mxCell id="30" value="AccessControlSystem.modifyCard()" style="rounded=1;whiteSpace=wrap;html=1;" parent="1" vertex="1">
          <mxGeometry x="300" y="850" width="220" height="60" as="geometry" />
        </mxCell>
        <mxCell id="31" parent="1" source="28" target="30" edge="1">
          <mxGeometry relative="1" as="geometry" />
        </mxCell>
        <mxCell id="32" value="Input: cardId, grant, floor, room" style="shape=parallelogram;perimeter=parallelogramPerimeter;whiteSpace=wrap;html=1;fixedSize=1;" parent="1" vertex="1">
          <mxGeometry x="310" y="950" width="200" height="60" as="geometry" />
        </mxCell>
        <mxCell id="33" parent="1" source="30" target="32" edge="1">
          <mxGeometry relative="1" as="geometry" />
        </mxCell>
        <mxCell id="34" value="Get card from cards map" style="whiteSpace=wrap;html=1;rounded=1;" parent="1" vertex="1">
          <mxGeometry x="330" y="1050" width="160" height="60" as="geometry" />
        </mxCell>
        <mxCell id="35" parent="1" source="32" target="34" edge="1">
          <mxGeometry relative="1" as="geometry" />
        </mxCell>
        <mxCell id="RBgAfe0IcUGbEfYPq5ZH-80" style="edgeStyle=orthogonalEdgeStyle;rounded=0;orthogonalLoop=1;jettySize=auto;html=1;entryX=0.5;entryY=0;entryDx=0;entryDy=0;" edge="1" parent="1" source="36" target="42">
          <mxGeometry relative="1" as="geometry" />
        </mxCell>
        <mxCell id="36" value="card instanceof StandardAccessCard" style="rhombus;whiteSpace=wrap;html=1;" parent="1" vertex="1">
          <mxGeometry x="340" y="1150" width="140" height="80" as="geometry" />
        </mxCell>
        <mxCell id="37" parent="1" source="34" target="36" edge="1">
          <mxGeometry relative="1" as="geometry" />
        </mxCell>
        <mxCell id="38" value="Yes" style="text;html=1;strokeColor=none;fillColor=none;align=center;verticalAlign=middle;whiteSpace=wrap;rounded=0;" parent="1" vertex="1">
          <mxGeometry x="405" y="1230" width="40" height="30" as="geometry" />
        </mxCell>
        <mxCell id="39" value="No" style="text;html=1;strokeColor=none;fillColor=none;align=center;verticalAlign=middle;whiteSpace=wrap;rounded=0;" parent="1" vertex="1">
          <mxGeometry x="280" y="1160" width="40" height="30" as="geometry" />
        </mxCell>
        <mxCell id="40" value="Log Modification (&quot;Modification not allowed...&quot;, cardId)" style="whiteSpace=wrap;html=1;rounded=1;" parent="1" vertex="1">
          <mxGeometry x="90" y="1280" width="160" height="80" as="geometry" />
        </mxCell>
        <mxCell id="41" style="entryX=0.5;entryY=0;entryDx=0;entryDy=0;" parent="1" source="36" target="40" edge="1">
          <mxGeometry relative="1" as="geometry">
            <mxPoint x="320" y="1240" as="targetPoint" />
            <mxPoint x="320" y="1160" as="sourcePoint" />
            <Array as="points">
              <mxPoint x="330" y="1190" />
              <mxPoint x="240" y="1190" />
              <mxPoint x="170" y="1190" />
            </Array>
          </mxGeometry>
          <mxLabel align="center" relative="1" x="0.25" y="-1" as="label">
            <mxGeometry x="-1" y="-1" width="20" height="20" as="geometry">
              <mxPoint as="offset" />
            </mxGeometry>
          </mxLabel>
        </mxCell>
        <mxCell id="42" value="Cast to StandardAccessCard" style="whiteSpace=wrap;html=1;rounded=1;" parent="1" vertex="1">
          <mxGeometry x="330" y="1280" width="160" height="60" as="geometry" />
        </mxCell>
        <mxCell id="RBgAfe0IcUGbEfYPq5ZH-81" style="edgeStyle=orthogonalEdgeStyle;rounded=0;orthogonalLoop=1;jettySize=auto;html=1;entryX=0.5;entryY=0;entryDx=0;entryDy=0;" edge="1" parent="1" source="44" target="50">
          <mxGeometry relative="1" as="geometry" />
        </mxCell>
        <mxCell id="RBgAfe0IcUGbEfYPq5ZH-82" style="edgeStyle=orthogonalEdgeStyle;rounded=0;orthogonalLoop=1;jettySize=auto;html=1;entryX=0;entryY=0.5;entryDx=0;entryDy=0;" edge="1" parent="1" source="44" target="48">
          <mxGeometry relative="1" as="geometry" />
        </mxCell>
        <mxCell id="44" value="grant" style="rhombus;whiteSpace=wrap;html=1;" parent="1" vertex="1">
          <mxGeometry x="350" y="1380" width="120" height="80" as="geometry" />
        </mxCell>
        <mxCell id="45" parent="1" source="42" target="44" edge="1">
          <mxGeometry relative="1" as="geometry" />
        </mxCell>
        <mxCell id="46" value="Yes" style="text;html=1;strokeColor=none;fillColor=none;align=center;verticalAlign=middle;whiteSpace=wrap;rounded=0;" parent="1" vertex="1">
          <mxGeometry x="500" y="1390" width="40" height="30" as="geometry" />
        </mxCell>
        <mxCell id="47" value="No" style="text;html=1;strokeColor=none;fillColor=none;align=center;verticalAlign=middle;whiteSpace=wrap;rounded=0;" parent="1" vertex="1">
          <mxGeometry x="375" y="1470" width="40" height="30" as="geometry" />
        </mxCell>
        <mxCell id="48" value="If floor != null, grantFloorAccess(floor)&lt;br&gt;If room != null, grantRoomAccess(room)" style="whiteSpace=wrap;html=1;rounded=1;" parent="1" vertex="1">
          <mxGeometry x="600" y="1380" width="180" height="80" as="geometry" />
        </mxCell>
        <mxCell id="50" value="If floor != null, revokeFloorAccess(floor)&lt;br&gt;If room != null, revokeRoomAccess(room)" style="whiteSpace=wrap;html=1;rounded=1;" parent="1" vertex="1">
          <mxGeometry x="320" y="1520" width="180" height="80" as="geometry" />
        </mxCell>
        <mxCell id="52" value="Log Modification (&quot;Modified&quot;, cardId) or Log Modification (&quot;Modification not allowed...&quot;, cardId)" style="whiteSpace=wrap;html=1;rounded=1;" parent="1" vertex="1">
          <mxGeometry x="310" y="1700" width="200" height="80" as="geometry" />
        </mxCell>
        <mxCell id="53" parent="1" source="50" target="52" edge="1">
          <mxGeometry relative="1" as="geometry" />
        </mxCell>
        <mxCell id="56" value="End" style="ellipse;whiteSpace=wrap;html=1;" parent="1" vertex="1">
          <mxGeometry x="360" y="1820" width="100" height="60" as="geometry" />
        </mxCell>
        <mxCell id="57" parent="1" source="52" target="56" edge="1">
          <mxGeometry relative="1" as="geometry" />
        </mxCell>
        <mxCell id="58" value="AccessControlSystem.attemptAccess()" style="rounded=1;whiteSpace=wrap;html=1;" parent="1" vertex="1">
          <mxGeometry x="320" y="1920" width="180" height="60" as="geometry" />
        </mxCell>
        <mxCell id="59" style="entryX=0.5;entryY=0;entryDx=0;entryDy=0;" parent="1" source="56" target="58" edge="1">
          <mxGeometry relative="1" as="geometry">
            <mxPoint x="410" y="1910" as="targetPoint" />
          </mxGeometry>
        </mxCell>
        <mxCell id="60" value="Input: cardId, floor, room" style="shape=parallelogram;perimeter=parallelogramPerimeter;whiteSpace=wrap;html=1;fixedSize=1;" parent="1" vertex="1">
          <mxGeometry x="310" y="2020" width="200" height="60" as="geometry" />
        </mxCell>
        <mxCell id="61" style="exitX=0.5;exitY=1;exitDx=0;exitDy=0;" parent="1" source="58" target="60" edge="1">
          <mxGeometry relative="1" as="geometry">
            <mxPoint x="430" y="1800" as="sourcePoint" />
          </mxGeometry>
        </mxCell>
        <mxCell id="62" value="Get card from cards map" style="whiteSpace=wrap;html=1;rounded=1;" parent="1" vertex="1">
          <mxGeometry x="330" y="2120" width="160" height="60" as="geometry" />
        </mxCell>
        <mxCell id="63" parent="1" source="60" target="62" edge="1">
          <mxGeometry relative="1" as="geometry" />
        </mxCell>
        <mxCell id="RBgAfe0IcUGbEfYPq5ZH-85" style="edgeStyle=orthogonalEdgeStyle;rounded=0;orthogonalLoop=1;jettySize=auto;html=1;entryX=0.5;entryY=0;entryDx=0;entryDy=0;" edge="1" parent="1" source="64" target="68">
          <mxGeometry relative="1" as="geometry" />
        </mxCell>
        <mxCell id="RBgAfe0IcUGbEfYPq5ZH-86" style="edgeStyle=orthogonalEdgeStyle;rounded=0;orthogonalLoop=1;jettySize=auto;html=1;entryX=0.5;entryY=0;entryDx=0;entryDy=0;" edge="1" parent="1" source="64" target="70">
          <mxGeometry relative="1" as="geometry" />
        </mxCell>
        <mxCell id="64" value="card != null &amp;&amp; card.hasAccess(floor, room)" style="rhombus;whiteSpace=wrap;html=1;" parent="1" vertex="1">
          <mxGeometry x="320" y="2220" width="180" height="80" as="geometry" />
        </mxCell>
        <mxCell id="65" parent="1" source="62" target="64" edge="1">
          <mxGeometry relative="1" as="geometry" />
        </mxCell>
        <mxCell id="66" value="Yes" style="text;html=1;strokeColor=none;fillColor=none;align=center;verticalAlign=middle;whiteSpace=wrap;rounded=0;" parent="1" vertex="1">
          <mxGeometry x="520" y="2220" width="40" height="30" as="geometry" />
        </mxCell>
        <mxCell id="67" value="No" style="text;html=1;strokeColor=none;fillColor=none;align=center;verticalAlign=middle;whiteSpace=wrap;rounded=0;" parent="1" vertex="1">
          <mxGeometry x="250" y="2220" width="40" height="30" as="geometry" />
        </mxCell>
        <mxCell id="RBgAfe0IcUGbEfYPq5ZH-88" style="edgeStyle=orthogonalEdgeStyle;rounded=0;orthogonalLoop=1;jettySize=auto;html=1;entryX=1;entryY=0.5;entryDx=0;entryDy=0;" edge="1" parent="1" source="68" target="72">
          <mxGeometry relative="1" as="geometry" />
        </mxCell>
        <mxCell id="68" value="success = true" style="whiteSpace=wrap;html=1;rounded=1;" parent="1" vertex="1">
          <mxGeometry x="570" y="2350" width="120" height="60" as="geometry" />
        </mxCell>
        <mxCell id="RBgAfe0IcUGbEfYPq5ZH-87" style="edgeStyle=orthogonalEdgeStyle;rounded=0;orthogonalLoop=1;jettySize=auto;html=1;entryX=0;entryY=0.5;entryDx=0;entryDy=0;" edge="1" parent="1" source="70" target="72">
          <mxGeometry relative="1" as="geometry" />
        </mxCell>
        <mxCell id="70" value="success = false" style="whiteSpace=wrap;html=1;rounded=1;" parent="1" vertex="1">
          <mxGeometry x="120" y="2350" width="120" height="60" as="geometry" />
        </mxCell>
        <mxCell id="72" value="Log Attempt (cardId, floor, room, success)" style="whiteSpace=wrap;html=1;rounded=1;" parent="1" vertex="1">
          <mxGeometry x="330" y="2340" width="160" height="80" as="geometry" />
        </mxCell>
        <mxCell id="75" value="End" style="ellipse;whiteSpace=wrap;html=1;" parent="1" vertex="1">
          <mxGeometry x="360" y="2460" width="100" height="60" as="geometry" />
        </mxCell>
        <mxCell id="76" parent="1" source="72" target="75" edge="1">
          <mxGeometry relative="1" as="geometry" />
        </mxCell>
        <mxCell id="RBgAfe0IcUGbEfYPq5ZH-79" style="entryX=1;entryY=0.5;entryDx=0;entryDy=0;" edge="1" parent="1" target="21">
          <mxGeometry relative="1" as="geometry">
            <mxPoint x="680" y="580" as="targetPoint" />
            <mxPoint x="570" y="510" as="sourcePoint" />
            <Array as="points">
              <mxPoint x="570" y="580" />
            </Array>
          </mxGeometry>
        </mxCell>
        <mxCell id="RBgAfe0IcUGbEfYPq5ZH-83" style="entryX=1;entryY=0.5;entryDx=0;entryDy=0;" edge="1" parent="1" target="50">
          <mxGeometry relative="1" as="geometry">
            <mxPoint x="590" y="1530" as="targetPoint" />
            <mxPoint x="690" y="1460" as="sourcePoint" />
            <Array as="points">
              <mxPoint x="690" y="1560" />
            </Array>
          </mxGeometry>
        </mxCell>
        <mxCell id="RBgAfe0IcUGbEfYPq5ZH-84" style="entryX=0;entryY=0.5;entryDx=0;entryDy=0;exitX=0.5;exitY=1;exitDx=0;exitDy=0;" edge="1" parent="1" source="40" target="52">
          <mxGeometry relative="1" as="geometry">
            <mxPoint x="50" y="1460" as="targetPoint" />
            <mxPoint x="240" y="1360" as="sourcePoint" />
            <Array as="points">
              <mxPoint x="170" y="1540" />
              <mxPoint x="170" y="1740" />
              <mxPoint x="240" y="1740" />
            </Array>
          </mxGeometry>
        </mxCell>
      </root>
    </mxGraphModel>
  </diagram>
</mxfile>
